<svg xmlns="http://www.w3.org/2000/svg" fill="none" viewBox="0 0 128 128">
    <path d="M50.4 78.5a75.1 75.1 0 0 0-28.5 6.9l24.2-65.1c.7-2.2 3.4-2.6 4.5-.7 10.4 15.8 20.4 47 0 58.9zm5.7-11.2a84 84 0 0 1 24.4-13.5c-3.6 8.8-9.3 15.1-24.4 13.5zM60.6 23c-2.6-5.6-6.2-7.8-9.4-7.8-4.1 0-7.9 3.8-9.4 9.7-4.7 17.1-2.2 37.3 6.1 51.3 10.6-10.4 31.9-16.1 45.3-21l-32.6-32.2zM27.8 89.3a71.7 71.7 0 0 0-12.2 11.8c.5 5.8 3.2 10.3 7.7 12 4.2 1.7 9.3 0 14.1-4.2l-9.6-19.6z" fill="url(#gradient)" />
    <defs>
        <linearGradient id="gradient" x1="0" y1="0" x2="1" y2="1">
            <stop offset="0%" stop-color="#f97316"/>
            <stop offset="100%" stop-color="#9333ea"/>
        </linearGradient>
    </defs>
</svg>
